<svg xmlns="http://www.w3.org/2000/svg" viewBox="0 0 16 16" width="16" height="16">
    <style>
        path {
            fill: black;
        }
        @media (prefers-color-scheme: dark) {
            path {
                fill: white;
            }
        }
    </style>
    <path fill-rule="evenodd" clip-rule="evenodd" d="M10 0.5C10 0.223858 9.77614 0 9.5 0C9.22386 0 9 0.223858 9 0.5V2H7V0.5C7 0.223858 6.77614 0 6.5 0C6.22386 0 6 0.223858 6 0.5V2H4C2.89543 2 2 2.89543 2 4V6H0.5C0.223858 6 0 6.22386 0 6.5C0 6.77614 0.223858 7 0.5 7H2V9H0.5C0.223858 9 0 9.22386 0 9.5C0 9.77614 0.223858 10 0.5 10H2V12C2 13.1046 2.89543 14 4 14H6V15.5C6 15.7761 6.22386 16 6.5 16C6.77614 16 7 15.7761 7 15.5V14H9V15.5C9 15.7761 9.22386 16 9.5 16C9.77614 16 10 15.7761 10 15.5V14H12C13.1046 14 14 13.1046 14 12V10H15.5C15.7761 10 16 9.77614 16 9.5C16 9.22386 15.7761 9 15.5 9H14V7H15.5C15.7761 7 16 6.77614 16 6.5C16 6.22386 15.7761 6 15.5 6H14V4C14 2.89543 13.1046 2 12 2H10V0.5ZM4 3H12C12.5523 3 13 3.44772 13 4V12C13 12.5523 12.5523 13 12 13H4C3.44772 13 3 12.5523 3 12V4C3 3.44772 3.44772 3 4 3ZM5 6C5 5.44772 5.44772 5 6 5H10C10.5523 5 11 5.44772 11 6V10C11 10.5523 10.5523 11 10 11H6C5.44772 11 5 10.5523 5 10V6ZM6 6.5C6 6.22386 6.22386 6 6.5 6H9.5C9.77614 6 10 6.22386 10 6.5V9.5C10 9.77614 9.77614 10 9.5 10H6.5C6.22386 10 6 9.77614 6 9.5V6.5Z"/>
</svg>