<svg xmlns="http://www.w3.org/2000/svg" viewBox="0 0 16 16" width="16" height="16">
    <style>
        path {
            fill: black;
        }
        @media (prefers-color-scheme: dark) {
            path {
                fill: white;
            }
        }
    </style>
    <path fill-rule="evenodd" clip-rule="evenodd" d="M10.5 1C10.7761 1 11 1.22386 11 1.5V3H12C12.5523 3 13 3.44772 13 4V5H14.5C14.7761 5 15 5.22386 15 5.5C15 5.77614 14.7761 6 14.5 6H13V10H14.5C14.7761 10 15 10.2239 15 10.5C15 10.7761 14.7761 11 14.5 11H13V12C13 12.5523 12.5523 13 12 13H11V14.5C11 14.7761 10.7761 15 10.5 15C10.2239 15 10 14.7761 10 14.5V13H6V14.5C6 14.7761 5.77614 15 5.5 15C5.22386 15 5 14.7761 5 14.5V13H4C3.44772 13 3 12.5523 3 12V11H1.5C1.22386 11 1 10.7761 1 10.5C1 10.2239 1.22386 10 1.5 10H3V6H1.5C1.22386 6 1 5.77614 1 5.5C1 5.22386 1.22386 5 1.5 5H3V4C3 3.44772 3.44772 3 4 3H5V1.5C5 1.22386 5.22386 1 5.5 1C5.77614 1 6 1.22386 6 1.5V3H10V1.5C10 1.22386 10.2239 1 10.5 1ZM12 4H4V12H12V4ZM6 7C6 6.44772 6.44772 6 7 6H9C9.55228 6 10 6.44772 10 7V9C10 9.55228 9.55228 10 9 10H7C6.44772 10 6 9.55228 6 9V7Z"></path>
</svg>